#!OML:ASF E:\Steps\Project 1\Capture day 1\Session 2\Subject.ASF
:FULLY-SPECIFIED
:DEGREES
414
root 3.18397 17.9773 17.2608 -152.778 -0.108082 177.985
lowerback -25.1601 -1.86209 -2.87015
upperback 0.712109 -1.94122 0.831276
thorax 15.1533 -1.2255 1.8639
lowerneck -1.57809 -1.64956 -1.80287
upperneck 19.9289 -1.06997 2.06883
head 6.31889 0.0431802 0.959351
rclavicle -1.57537e-014 4.57205e-015
rhumerus -42.8127 -18.3031 -72.302
rradius 40.7045
rwrist -3.23769
rhand -6.00114 -55.2118
rfingers 7.12502
rthumb 19.8313 -84.2201
lclavicle -1.57537e-014 4.57205e-015
lhumerus -29.9705 -1.77686 81.6718
lradius 31.3953
lwrist -0.241355
lhand -22.0583 -13.9966
lfingers 7.12502
lthumb 4.35248 15.9387
rfemur -31.658 11.4985 15.447
rtibia 13.8691
rfoot -18.1596 -4.65667
rtoes -31.3635
lfemur -27.9742 -2.84295 -25.586
ltibia 7.17049
lfoot -4.27922 -7.97365
ltoes -2.67123
415
root 3.18256 17.9758 17.2511 -152.772 -0.20323 178.038
lowerback -25.0773 -1.87681 -2.86385
upperback 0.518952 -1.98923 0.871605
thorax 14.878 -1.25102 1.89079
lowerneck -1.39345 -1.60717 -1.8228
upperneck 19.6545 -1.0171 1.97792
head 6.1983 0.0515052 0.934504
rclavicle 1.48095e-014 -1.21259e-014
rhumerus -42.716 -17.9399 -72.5122
rradius 40.4163
rwrist -3.14712
rhand -5.20124 -53.4897
rfingers 7.12502
rthumb 20.6001 -82.4166
lclavicle 1.48095e-014 -1.21259e-014
lhumerus -30.2162 -1.56217 81.5713
lradius 31.3892
lwrist -0.0830399
lhand -21.8145 -13.8597
lfingers 7.12502
lthumb 4.58791 16.0706
rfemur -31.5435 11.4191 15.5549
rtibia 13.7695
rfoot -18.1482 -4.57217
rtoes -31.3796
lfemur -27.9999 -2.92679 -25.5014
ltibia 7.31339
lfoot -4.27785 -7.98712
ltoes -1.43909
416
root 3.18142 17.9771 17.2417 -152.885 -0.27814 178.103
lowerback -25.0259 -1.84841 -2.85337
upperback 0.410792 -1.9653 0.862079
thorax 14.7167 -1.24037 1.88386
lowerneck -1.1633 -1.64019 -1.7049
upperneck 19.3056 -1.08542 1.89029
head 6.04787 0.00881179 0.880293
rclavicle 7.7526e-015 1.59028e-015
rhumerus -42.6004 -17.7588 -72.7497
rradius 40.0939
rwrist -3.01053
rhand -4.90483 -52.9953
rfingers 7.12502
rthumb 20.8849 -81.8911
lclavicle 7.7526e-015 1.59028e-015
lhumerus -30.4039 -1.4939 81.4726
lradius 31.3189
lwrist -0.0557993
lhand -21.7341 -13.8298
lfingers 7.12502
lthumb 4.66553 16.0988
rfemur -31.2943 11.4547 15.6688
rtibia 13.6384
rfoot -18.1225 -4.60199
rtoes -32.0349
lfemur -27.8547 -2.94356 -25.4148
ltibia 7.34765
lfoot -4.34079 -8.01334
ltoes -1.45108
417
root 3.18159 17.9785 17.2337 -152.962 -0.334493 178.145
lowerback -25.1947 -1.77178 -2.85878
upperback 0.408512 -1.8515 0.797319
thorax 14.8001 -1.18842 1.85136
lowerneck -1.25006 -1.70391 -1.56045
upperneck 19.2638 -1.18405 1.8361
head 6.04989 -0.0359752 0.83263
rclavicle -1.00883e-014 7.55382e-015
rhumerus -42.3739 -17.8883 -72.9711
rradius 39.7628
rwrist -2.96295
rhand -4.99891 -52.9678
rfingers 7.12502
rthumb 20.7945 -81.8735
lclavicle -1.00883e-014 7.55382e-015
lhumerus -30.2643 -1.3445 81.3569
lradius 31.1254
lwrist -0.129792
lhand -21.6739 -13.7265
lfingers 7.12502
lthumb 4.72369 16.2008
rfemur -31.0843 11.3641 15.7796
rtibia 13.4752
rfoot -18.0663 -4.53487
rtoes -32.3278
lfemur -27.7488 -2.97014 -25.3477
ltibia 7.36967
lfoot -4.4091 -7.79367
ltoes -3.06337
418
root 3.18054 17.9809 17.2228 -153.111 -0.578314 178.108
lowerback -25.3266 -1.73064 -2.89719
upperback 0.424471 -1.77219 0.730696
thorax 14.888 -1.1534 1.82373
lowerneck -1.10469 -1.95151 -1.69319
upperneck 18.839 -1.61687 2.18131
head 5.902 -0.249701 0.937153
rclavicle -6.36111e-015 -9.93923e-016
rhumerus -42.2386 -18.1213 -73.1241
rradius 39.5136
rwrist -2.9236
rhand -5.10834 -52.9543
rfingers 7.12502
rthumb 20.6893 -81.8715
lclavicle -6.36111e-015 -9.93923e-016
lhumerus -30.0983 -1.32743 81.325
lradius 30.9007
lwrist -0.152971
lhand -21.6331 -13.6697
lfingers 7.12502
lthumb 4.76309 16.2568
rfemur -30.6752 11.014 15.9387
rtibia 13.2168
rfoot -18.1126 -4.52239
rtoes -32.5977
lfemur -27.5962 -3.1448 -25.3373
ltibia 7.50654
lfoot -4.44749 -7.44865
ltoes -5.56777
419
root 3.21757 17.9857 17.1896 -153.598 -0.634257 178.08
lowerback -25.2013 -1.81509 -3.51345
upperback 0.453155 -1.70558 0.778652
thorax 14.8691 -1.1719 2.26168
lowerneck -0.801302 -1.96255 -1.74692
upperneck 18.4328 -1.6925 2.42838
head 5.72587 -0.285603 1.01864
rclavicle 2.5842e-015 9.93923e-016
rhumerus -42.2379 -18.0602 -73.3228
rradius 39.2951
rwrist -2.95215
rhand -5.12241 -52.888
rfingers 7.12502
rthumb 20.6758 -81.8067
lclavicle 2.5842e-015 9.93923e-016
lhumerus -30.2315 -1.35036 81.3007
lradius 30.699
lwrist -0.146747
lhand -21.8942 -13.5839
lfingers 7.12502
lthumb 4.51091 16.3481
rfemur -29.8958 12.0484 15.8049
rtibia 12.8506
rfoot -17.9885 -5.69229
rtoes -33.2479
lfemur -26.9992 -3.07636 -25.0671
ltibia 7.48031
lfoot -4.56084 -7.40201
ltoes -6.28567
420
root 3.18377 17.9942 17.1874 -153.914 -1.17427 177.885
lowerback -24.7362 -1.91191 -3.16757
upperback 0.361473 -1.93709 0.67564
thorax 14.4954 -1.23845 1.86616
lowerneck -0.74784 -1.8572 -1.69562
upperneck 18.2354 -1.55356 2.32164
head 5.65048 -0.230505 0.982175
rclavicle -5.66536e-015 -3.67752e-015
rhumerus -42.0615 -17.7243 -73.6393
rradius 39.0146
rwrist -2.90343
rhand -5.18085 -52.7584
rfingers 7.12502
rthumb 20.6196 -81.6832
lclavicle -5.66536e-015 -3.67752e-015
lhumerus -30.2919 -0.977385 81.2061
lradius 30.4139
lwrist -0.288403
lhand -22.1768 -13.4259
lfingers 7.12502
lthumb 4.23809 16.5116
rfemur -29.043 10.6951 16.0964
rtibia 12.3942
rfoot -17.9635 -4.88115
rtoes -33.521
lfemur -26.5266 -3.33753 -25.4969
ltibia 7.4822
lfoot -4.48575 -8.23853
ltoes -3.94903
